<?xml version="1.0" encoding="utf-8"?>
<!-- Generator: Adobe Illustrator 19.2.1, SVG Export Plug-In . SVG Version: 6.00 Build 0)  -->
<svg version="1.1" id="Layer_1" xmlns="http://www.w3.org/2000/svg" xmlns:xlink="http://www.w3.org/1999/xlink" x="0px" y="0px"
	 viewBox="0 0 30 30" style="enable-background:new 0 0 30 30;" xml:space="preserve">
<style type="text/css">
	.st0{fill:#222222;}
</style>
<g>
	<g>
		<path class="st0" d="M15,0C6.7,0,0,6.7,0,15s6.7,15,15,15s15-6.7,15-15S23.3,0,15,0z M15,29C7.3,29,1,22.7,1,15S7.3,1,15,1
			s14,6.3,14,14S22.7,29,15,29z"/>
	</g>
</g>
<g>
	<path class="st0" d="M18.8,17.8c0.9-1.1,1.4-2.5,1.4-4c0-3.5-2.8-6.4-6.3-6.4s-6.3,2.8-6.3,6.4s2.8,6.4,6.3,6.4
		c1.5,0,2.8-0.5,3.9-1.3l3.7,3.6l1.1-1L18.8,17.8z M13.8,18.6c-2.6,0-4.8-2.1-4.8-4.8C9,11.2,11.1,9,13.8,9c2.6,0,4.8,2.1,4.8,4.8
		S16.5,18.6,13.8,18.6z"/>
</g>
</svg>
