<?xml version="1.0" encoding="utf-8"?>
<!-- Generator: Adobe Illustrator 19.2.1, SVG Export Plug-In . SVG Version: 6.00 Build 0)  -->
<svg version="1.1" id="Layer_1" xmlns="http://www.w3.org/2000/svg" xmlns:xlink="http://www.w3.org/1999/xlink" x="0px" y="0px"
	 viewBox="0 0 30 30" style="enable-background:new 0 0 30 30;" xml:space="preserve">
<style type="text/css">
	.st0{fill-rule:evenodd;clip-rule:evenodd;fill:#222222;}
</style>
<g>
	<g>
		<path class="st0" d="M15,0C6.7,0,0,6.7,0,15s6.7,15,15,15s15-6.7,15-15S23.3,0,15,0z M15,29C7.3,29,1,22.7,1,15S7.3,1,15,1
			s14,6.3,14,14S22.7,29,15,29z"/>
	</g>
</g>
<g>
	<path class="st0" d="M21,13.3c-0.2-3.5-2.8-6.2-6-6.2s-5.7,2.8-6,6.2c0,0.1,0,0.2,0,0.2v8.4c0,0.5,0.5,1,1,1h10c0.5,0,1-0.5,1-1
		v-8.4C21,13.5,21,13.4,21,13.3z M15,8.7c2,0,3.7,1.7,4.2,3.9h-8.3C11.3,10.3,13,8.7,15,8.7z M19.3,21.4h-8.6v-7.2h8.6V21.4z"/>
</g>
</svg>
