<?xml version="1.0" encoding="utf-8"?>
<!-- Generator: Adobe Illustrator 21.1.0, SVG Export Plug-In . SVG Version: 6.00 Build 0)  -->
<svg version="1.1" id="Layer_1" xmlns="http://www.w3.org/2000/svg" xmlns:xlink="http://www.w3.org/1999/xlink" x="0px" y="0px"
	 viewBox="0 0 30 30" style="enable-background:new 0 0 30 30;" xml:space="preserve">
<style type="text/css">
	.st0{fill-rule:evenodd;clip-rule:evenodd;fill:#222222;}
</style>
<g>
	<g>
		<path class="st0" d="M15,0C6.7,0,0,6.7,0,15s6.7,15,15,15s15-6.7,15-15S23.3,0,15,0z M15,29C7.3,29,1,22.7,1,15S7.3,1,15,1
			s14,6.3,14,14S22.7,29,15,29z"/>
	</g>
</g>
<g>
	<path class="st0" d="M23,21.5c0-3.5-2.6-5.4-4.7-6.3c1-0.9,1.7-2.2,1.7-3.7c0-2.8-2.2-5-5-5s-5,2.2-5,5c0,1.5,0.7,2.8,1.7,3.7
		C9.6,16.1,7,18,7,21.5h2c0,0-0.3-4.3,5-5h2c5.3,0.7,5,5,5,5H23z M15,14.5c-1.7,0-3-1.3-3-3c0-1.7,1.3-3,3-3s3,1.3,3,3
		C18,13.2,16.7,14.5,15,14.5z"/>
</g>
</svg>
