<?xml version="1.0" encoding="UTF-8" standalone="no"?>
<!DOCTYPE svg PUBLIC "-//W3C//DTD SVG 1.1//EN"
 "http://www.w3.org/Graphics/SVG/1.1/DTD/svg11.dtd">
<!-- Generated by graphviz version 2.40.1 (20161225.0304)
 -->
<!-- Title: dependencies Pages: 1 -->
<svg width="3528pt" height="284pt"
 viewBox="0.00 0.00 3528.00 284.00" xmlns="http://www.w3.org/2000/svg" xmlns:xlink="http://www.w3.org/1999/xlink">
<g id="graph0" class="graph" transform="scale(1 1) rotate(0) translate(4 280)">
<title>dependencies</title>
<polygon fill="#ffffff" stroke="transparent" points="-4,4 -4,-280 3524,-280 3524,4 -4,4"/>
<text text-anchor="start" x="1739.0091" y="-42.4" font-family="sans-serif" font-weight="bold" font-size="14.00" fill="#000000">Legend</text>
<polygon fill="#ffffb3" stroke="transparent" points="1526,-10 1526,-30 1546,-30 1546,-10 1526,-10"/>
<text text-anchor="start" x="1549.629" y="-15.4" font-family="sans-serif" font-size="14.00" fill="#000000"> &#160;Declarations</text>
<polygon fill="#8dd3c7" stroke="transparent" points="1639,-10 1639,-30 1659,-30 1659,-10 1639,-10"/>
<text text-anchor="start" x="1662.7251" y="-15.4" font-family="sans-serif" font-size="14.00" fill="#000000"> &#160;Module</text>
<polygon fill="#80b1d3" stroke="transparent" points="1725,-10 1725,-30 1745,-30 1745,-10 1725,-10"/>
<text text-anchor="start" x="1748.7812" y="-15.4" font-family="sans-serif" font-size="14.00" fill="#000000"> &#160;Bootstrap</text>
<polygon fill="#fdb462" stroke="transparent" points="1822,-10 1822,-30 1842,-30 1842,-10 1822,-10"/>
<text text-anchor="start" x="1845.6732" y="-15.4" font-family="sans-serif" font-size="14.00" fill="#000000"> &#160;Providers</text>
<polygon fill="#fb8072" stroke="transparent" points="1918,-10 1918,-30 1938,-30 1938,-10 1918,-10"/>
<text text-anchor="start" x="1941.7258" y="-15.4" font-family="sans-serif" font-size="14.00" fill="#000000"> &#160;Exports</text>
<g id="clust1" class="cluster">
<title>cluster_AppModule</title>
<polygon fill="none" stroke="#000000" stroke-dasharray="1,5" points="8,-70 8,-268 3512,-268 3512,-70 8,-70"/>
</g>
<g id="clust2" class="cluster">
<title>cluster_AppModule_declarations</title>
<polygon fill="none" stroke="#000000" points="1070,-78 1070,-130 3504,-130 3504,-78 1070,-78"/>
</g>
<g id="clust18" class="cluster">
<title>cluster_AppModule_imports</title>
<polygon fill="none" stroke="#000000" points="380,-78 380,-130 1062,-130 1062,-78 380,-78"/>
</g>
<g id="clust20" class="cluster">
<title>cluster_AppModule_bootstrap</title>
<polygon fill="none" stroke="#000000" points="1637,-208 1637,-260 1761,-260 1761,-208 1637,-208"/>
</g>
<g id="clust21" class="cluster">
<title>cluster_AppModule_providers</title>
<polygon fill="none" stroke="#000000" points="16,-78 16,-130 372,-130 372,-78 16,-78"/>
</g>
<!-- AppComponent -->
<g id="node1" class="node">
<title>AppComponent</title>
<polygon fill="#ffffb3" stroke="#000000" points="3495.9399,-122 3390.0601,-122 3390.0601,-86 3495.9399,-86 3495.9399,-122"/>
<text text-anchor="middle" x="3443" y="-99.8" font-family="Times,serif" font-size="14.00" fill="#000000">AppComponent</text>
</g>
<!-- AppModule -->
<g id="node16" class="node">
<title>AppModule</title>
<polygon fill="#8dd3c7" stroke="#000000" points="1740.6571,-187 1737.6571,-191 1716.6571,-191 1713.6571,-187 1657.3429,-187 1657.3429,-151 1740.6571,-151 1740.6571,-187"/>
<text text-anchor="middle" x="1699" y="-164.8" font-family="Times,serif" font-size="14.00" fill="#000000">AppModule</text>
</g>
<!-- AppComponent&#45;&gt;AppModule -->
<g id="edge1" class="edge">
<title>AppComponent&#45;&gt;AppModule</title>
<path fill="none" stroke="#000000" d="M3443,-122.1532C3443,-145.7566 3443,-184 3443,-184 3443,-184 1750.8172,-184 1750.8172,-184"/>
<polygon fill="#000000" stroke="#000000" points="1750.8172,-180.5001 1740.8172,-184 1750.8172,-187.5001 1750.8172,-180.5001"/>
</g>
<!-- HeaderComponent -->
<g id="node2" class="node">
<title>HeaderComponent</title>
<polygon fill="#ffffb3" stroke="#000000" points="3371.7437,-122 3250.2563,-122 3250.2563,-86 3371.7437,-86 3371.7437,-122"/>
<text text-anchor="middle" x="3311" y="-99.8" font-family="Times,serif" font-size="14.00" fill="#000000">HeaderComponent</text>
</g>
<!-- HeaderComponent&#45;&gt;AppModule -->
<g id="edge2" class="edge">
<title>HeaderComponent&#45;&gt;AppModule</title>
<path fill="none" stroke="#000000" d="M3311,-122.2479C3311,-145.0179 3311,-181 3311,-181 3311,-181 1750.877,-181 1750.877,-181"/>
<polygon fill="#000000" stroke="#000000" points="1750.877,-177.5001 1740.877,-181 1750.877,-184.5001 1750.877,-177.5001"/>
</g>
<!-- FooterComponent -->
<g id="node3" class="node">
<title>FooterComponent</title>
<polygon fill="#ffffb3" stroke="#000000" points="3231.8809,-122 3114.1191,-122 3114.1191,-86 3231.8809,-86 3231.8809,-122"/>
<text text-anchor="middle" x="3173" y="-99.8" font-family="Times,serif" font-size="14.00" fill="#000000">FooterComponent</text>
</g>
<!-- FooterComponent&#45;&gt;AppModule -->
<g id="edge3" class="edge">
<title>FooterComponent&#45;&gt;AppModule</title>
<path fill="none" stroke="#000000" d="M3173,-122.2921C3173,-144.2057 3173,-178 3173,-178 3173,-178 1750.7396,-178 1750.7396,-178"/>
<polygon fill="#000000" stroke="#000000" points="1750.7396,-174.5001 1740.7396,-178 1750.7396,-181.5001 1750.7396,-174.5001"/>
</g>
<!-- CartComponent -->
<g id="node4" class="node">
<title>CartComponent</title>
<polygon fill="#ffffb3" stroke="#000000" points="3095.9357,-122 2990.0643,-122 2990.0643,-86 3095.9357,-86 3095.9357,-122"/>
<text text-anchor="middle" x="3043" y="-99.8" font-family="Times,serif" font-size="14.00" fill="#000000">CartComponent</text>
</g>
<!-- CartComponent&#45;&gt;AppModule -->
<g id="edge4" class="edge">
<title>CartComponent&#45;&gt;AppModule</title>
<path fill="none" stroke="#000000" d="M3043,-122.0267C3043,-142.7672 3043,-174 3043,-174 3043,-174 1750.697,-174 1750.697,-174"/>
<polygon fill="#000000" stroke="#000000" points="1750.6971,-170.5001 1740.697,-174 1750.697,-177.5001 1750.6971,-170.5001"/>
</g>
<!-- DetailComponent -->
<g id="node5" class="node">
<title>DetailComponent</title>
<polygon fill="#ffffb3" stroke="#000000" points="2972.5409,-122 2857.4591,-122 2857.4591,-86 2972.5409,-86 2972.5409,-122"/>
<text text-anchor="middle" x="2915" y="-99.8" font-family="Times,serif" font-size="14.00" fill="#000000">DetailComponent</text>
</g>
<!-- DetailComponent&#45;&gt;AppModule -->
<g id="edge5" class="edge">
<title>DetailComponent&#45;&gt;AppModule</title>
<path fill="none" stroke="#000000" d="M2915,-122.308C2915,-142.1455 2915,-171 2915,-171 2915,-171 1750.8575,-171 1750.8575,-171"/>
<polygon fill="#000000" stroke="#000000" points="1750.8575,-167.5001 1740.8575,-171 1750.8574,-174.5001 1750.8575,-167.5001"/>
</g>
<!-- ViewOrderComponent -->
<g id="node6" class="node">
<title>ViewOrderComponent</title>
<polygon fill="#ffffb3" stroke="#000000" points="2839.2935,-122 2694.7065,-122 2694.7065,-86 2839.2935,-86 2839.2935,-122"/>
<text text-anchor="middle" x="2767" y="-99.8" font-family="Times,serif" font-size="14.00" fill="#000000">ViewOrderComponent</text>
</g>
<!-- ViewOrderComponent&#45;&gt;AppModule -->
<g id="edge6" class="edge">
<title>ViewOrderComponent&#45;&gt;AppModule</title>
<path fill="none" stroke="#000000" d="M2767,-122.1686C2767,-141.0898 2767,-168 2767,-168 2767,-168 1750.8669,-168 1750.8669,-168"/>
<polygon fill="#000000" stroke="#000000" points="1750.8669,-164.5001 1740.8669,-168 1750.8668,-171.5001 1750.8669,-164.5001"/>
</g>
<!-- LoginComponentComponent -->
<g id="node7" class="node">
<title>LoginComponentComponent</title>
<polygon fill="#ffffb3" stroke="#000000" points="2677.108,-122 2496.892,-122 2496.892,-86 2677.108,-86 2677.108,-122"/>
<text text-anchor="middle" x="2587" y="-99.8" font-family="Times,serif" font-size="14.00" fill="#000000">LoginComponentComponent</text>
</g>
<!-- LoginComponentComponent&#45;&gt;AppModule -->
<g id="edge7" class="edge">
<title>LoginComponentComponent&#45;&gt;AppModule</title>
<path fill="none" stroke="#000000" d="M2587,-122.302C2587,-140.2699 2587,-165 2587,-165 2587,-165 1750.9354,-165 1750.9354,-165"/>
<polygon fill="#000000" stroke="#000000" points="1750.9354,-161.5001 1740.9354,-165 1750.9354,-168.5001 1750.9354,-161.5001"/>
</g>
<!-- HomeComponentComponent -->
<g id="node8" class="node">
<title>HomeComponentComponent</title>
<polygon fill="#ffffb3" stroke="#000000" points="2479.3766,-122 2298.6234,-122 2298.6234,-86 2479.3766,-86 2479.3766,-122"/>
<text text-anchor="middle" x="2389" y="-99.8" font-family="Times,serif" font-size="14.00" fill="#000000">HomeComponentComponent</text>
</g>
<!-- HomeComponentComponent&#45;&gt;AppModule -->
<g id="edge8" class="edge">
<title>HomeComponentComponent&#45;&gt;AppModule</title>
<path fill="none" stroke="#000000" d="M2389,-122.0352C2389,-138.7344 2389,-161 2389,-161 2389,-161 1750.866,-161 1750.866,-161"/>
<polygon fill="#000000" stroke="#000000" points="1750.866,-157.5001 1740.866,-161 1750.8659,-164.5001 1750.866,-157.5001"/>
</g>
<!-- ItemComponentComponent -->
<g id="node9" class="node">
<title>ItemComponentComponent</title>
<polygon fill="#ffffb3" stroke="#000000" points="2280.3215,-122 2107.6785,-122 2107.6785,-86 2280.3215,-86 2280.3215,-122"/>
<text text-anchor="middle" x="2194" y="-99.8" font-family="Times,serif" font-size="14.00" fill="#000000">ItemComponentComponent</text>
</g>
<!-- ItemComponentComponent&#45;&gt;AppModule -->
<g id="edge9" class="edge">
<title>ItemComponentComponent&#45;&gt;AppModule</title>
<path fill="none" stroke="#000000" d="M2194,-122.2819C2194,-137.9478 2194,-158 2194,-158 2194,-158 1750.7768,-158 1750.7768,-158"/>
<polygon fill="#000000" stroke="#000000" points="1750.7768,-154.5001 1740.7768,-158 1750.7768,-161.5001 1750.7768,-154.5001"/>
</g>
<!-- OrdersComponentComponent -->
<g id="node10" class="node">
<title>OrdersComponentComponent</title>
<polygon fill="#ffffb3" stroke="#000000" points="2089.252,-122 1904.748,-122 1904.748,-86 2089.252,-86 2089.252,-122"/>
<text text-anchor="middle" x="1997" y="-99.8" font-family="Times,serif" font-size="14.00" fill="#000000">OrdersComponentComponent</text>
</g>
<!-- OrdersComponentComponent&#45;&gt;AppModule -->
<g id="edge10" class="edge">
<title>OrdersComponentComponent&#45;&gt;AppModule</title>
<path fill="none" stroke="#000000" d="M1997,-122.1243C1997,-136.7832 1997,-155 1997,-155 1997,-155 1750.7494,-155 1750.7494,-155"/>
<polygon fill="#000000" stroke="#000000" points="1750.7494,-151.5001 1740.7494,-155 1750.7494,-158.5001 1750.7494,-151.5001"/>
</g>
<!-- CheckoutComponentComponent -->
<g id="node11" class="node">
<title>CheckoutComponentComponent</title>
<polygon fill="#ffffb3" stroke="#000000" points="1886.3215,-122 1685.6785,-122 1685.6785,-86 1886.3215,-86 1886.3215,-122"/>
<text text-anchor="middle" x="1786" y="-99.8" font-family="Times,serif" font-size="14.00" fill="#000000">CheckoutComponentComponent</text>
</g>
<!-- CheckoutComponentComponent&#45;&gt;AppModule -->
<g id="edge11" class="edge">
<title>CheckoutComponentComponent&#45;&gt;AppModule</title>
<path fill="none" stroke="#000000" d="M1713.3338,-122.1061C1713.3338,-122.1061 1713.3338,-140.991 1713.3338,-140.991"/>
<polygon fill="#000000" stroke="#000000" points="1709.8339,-140.9909 1713.3338,-150.991 1716.8339,-140.991 1709.8339,-140.9909"/>
</g>
<!-- FilterComponent -->
<g id="node12" class="node">
<title>FilterComponent</title>
<polygon fill="#ffffb3" stroke="#000000" points="1667.6625,-122 1556.3375,-122 1556.3375,-86 1667.6625,-86 1667.6625,-122"/>
<text text-anchor="middle" x="1612" y="-99.8" font-family="Times,serif" font-size="14.00" fill="#000000">FilterComponent</text>
</g>
<!-- FilterComponent&#45;&gt;AppModule -->
<g id="edge12" class="edge">
<title>FilterComponent&#45;&gt;AppModule</title>
<path fill="none" stroke="#000000" d="M1662.5014,-122.1061C1662.5014,-122.1061 1662.5014,-140.991 1662.5014,-140.991"/>
<polygon fill="#000000" stroke="#000000" points="1659.0015,-140.9909 1662.5014,-150.991 1666.0015,-140.991 1659.0015,-140.9909"/>
</g>
<!-- PaymentComponent -->
<g id="node13" class="node">
<title>PaymentComponent</title>
<polygon fill="#ffffb3" stroke="#000000" points="1538.3258,-122 1407.6742,-122 1407.6742,-86 1538.3258,-86 1538.3258,-122"/>
<text text-anchor="middle" x="1473" y="-99.8" font-family="Times,serif" font-size="14.00" fill="#000000">PaymentComponent</text>
</g>
<!-- PaymentComponent&#45;&gt;AppModule -->
<g id="edge13" class="edge">
<title>PaymentComponent&#45;&gt;AppModule</title>
<path fill="none" stroke="#000000" d="M1473,-122.1243C1473,-136.7832 1473,-155 1473,-155 1473,-155 1647.2847,-155 1647.2847,-155"/>
<polygon fill="#000000" stroke="#000000" points="1647.2848,-158.5001 1657.2847,-155 1647.2847,-151.5001 1647.2848,-158.5001"/>
</g>
<!-- PageNotFoundComponent -->
<g id="node14" class="node">
<title>PageNotFoundComponent</title>
<polygon fill="#ffffb3" stroke="#000000" points="1389.8243,-122 1224.1757,-122 1224.1757,-86 1389.8243,-86 1389.8243,-122"/>
<text text-anchor="middle" x="1307" y="-99.8" font-family="Times,serif" font-size="14.00" fill="#000000">PageNotFoundComponent</text>
</g>
<!-- PageNotFoundComponent&#45;&gt;AppModule -->
<g id="edge14" class="edge">
<title>PageNotFoundComponent&#45;&gt;AppModule</title>
<path fill="none" stroke="#000000" d="M1307,-122.2819C1307,-137.9478 1307,-158 1307,-158 1307,-158 1647.0491,-158 1647.0491,-158"/>
<polygon fill="#000000" stroke="#000000" points="1647.0492,-161.5001 1657.0491,-158 1647.0491,-154.5001 1647.0492,-161.5001"/>
</g>
<!-- AccountComponent -->
<g id="node15" class="node">
<title>AccountComponent</title>
<polygon fill="#ffffb3" stroke="#000000" points="1206.259,-122 1077.741,-122 1077.741,-86 1206.259,-86 1206.259,-122"/>
<text text-anchor="middle" x="1142" y="-99.8" font-family="Times,serif" font-size="14.00" fill="#000000">AccountComponent</text>
</g>
<!-- AccountComponent&#45;&gt;AppModule -->
<g id="edge15" class="edge">
<title>AccountComponent&#45;&gt;AppModule</title>
<path fill="none" stroke="#000000" d="M1142,-122.0352C1142,-138.7344 1142,-161 1142,-161 1142,-161 1647.1345,-161 1647.1345,-161"/>
<polygon fill="#000000" stroke="#000000" points="1647.1345,-164.5001 1657.1345,-161 1647.1344,-157.5001 1647.1345,-164.5001"/>
</g>
<!-- AppComponent  -->
<g id="node22" class="node">
<title>AppComponent </title>
<polygon fill="#80b1d3" stroke="#000000" points="1753.439,-252 1644.561,-252 1644.561,-216 1753.439,-216 1753.439,-252"/>
<text text-anchor="middle" x="1699" y="-229.8" font-family="Times,serif" font-size="14.00" fill="#000000">AppComponent </text>
</g>
<!-- AppModule&#45;&gt;AppComponent  -->
<g id="edge21" class="edge">
<title>AppModule&#45;&gt;AppComponent </title>
<path fill="none" stroke="#000000" stroke-dasharray="1,5" d="M1699,-187.1061C1699,-187.1061 1699,-205.991 1699,-205.991"/>
<polygon fill="#000000" stroke="#000000" points="1695.5001,-205.9909 1699,-215.991 1702.5001,-205.991 1695.5001,-205.9909"/>
</g>
<!-- BrowserModule -->
<g id="node17" class="node">
<title>BrowserModule</title>
<polygon fill="#8dd3c7" stroke="#000000" points="1054.4734,-122 1051.4734,-126 1030.4734,-126 1027.4734,-122 947.5266,-122 947.5266,-86 1054.4734,-86 1054.4734,-122"/>
<text text-anchor="middle" x="1001" y="-99.8" font-family="Times,serif" font-size="14.00" fill="#000000">BrowserModule</text>
</g>
<!-- BrowserModule&#45;&gt;AppModule -->
<g id="edge16" class="edge">
<title>BrowserModule&#45;&gt;AppModule</title>
<path fill="none" stroke="#000000" d="M1001,-122.302C1001,-140.2699 1001,-165 1001,-165 1001,-165 1647.1684,-165 1647.1684,-165"/>
<polygon fill="#000000" stroke="#000000" points="1647.1684,-168.5001 1657.1684,-165 1647.1684,-161.5001 1647.1684,-168.5001"/>
</g>
<!-- FormsModule -->
<g id="node18" class="node">
<title>FormsModule</title>
<polygon fill="#8dd3c7" stroke="#000000" points="929.8288,-122 926.8288,-126 905.8288,-126 902.8288,-122 834.1712,-122 834.1712,-86 929.8288,-86 929.8288,-122"/>
<text text-anchor="middle" x="882" y="-99.8" font-family="Times,serif" font-size="14.00" fill="#000000">FormsModule</text>
</g>
<!-- FormsModule&#45;&gt;AppModule -->
<g id="edge17" class="edge">
<title>FormsModule&#45;&gt;AppModule</title>
<path fill="none" stroke="#000000" d="M882,-122.1686C882,-141.0898 882,-168 882,-168 882,-168 1647.0787,-168 1647.0787,-168"/>
<polygon fill="#000000" stroke="#000000" points="1647.0787,-171.5001 1657.0787,-168 1647.0787,-164.5001 1647.0787,-171.5001"/>
</g>
<!-- ReactiveFormsModule -->
<g id="node19" class="node">
<title>ReactiveFormsModule</title>
<polygon fill="#8dd3c7" stroke="#000000" points="816.3047,-122 813.3047,-126 792.3047,-126 789.3047,-122 671.6953,-122 671.6953,-86 816.3047,-86 816.3047,-122"/>
<text text-anchor="middle" x="744" y="-99.8" font-family="Times,serif" font-size="14.00" fill="#000000">ReactiveFormsModule</text>
</g>
<!-- ReactiveFormsModule&#45;&gt;AppModule -->
<g id="edge18" class="edge">
<title>ReactiveFormsModule&#45;&gt;AppModule</title>
<path fill="none" stroke="#000000" d="M744,-122.308C744,-142.1455 744,-171 744,-171 744,-171 1647.0422,-171 1647.0422,-171"/>
<polygon fill="#000000" stroke="#000000" points="1647.0422,-174.5001 1657.0422,-171 1647.0422,-167.5001 1647.0422,-174.5001"/>
</g>
<!-- AppRoutingModule -->
<g id="node20" class="node">
<title>AppRoutingModule</title>
<polygon fill="#8dd3c7" stroke="#000000" points="653.2744,-122 650.2744,-126 629.2744,-126 626.2744,-122 524.7256,-122 524.7256,-86 653.2744,-86 653.2744,-122"/>
<text text-anchor="middle" x="589" y="-99.8" font-family="Times,serif" font-size="14.00" fill="#000000">AppRoutingModule</text>
</g>
<!-- AppRoutingModule&#45;&gt;AppModule -->
<g id="edge19" class="edge">
<title>AppRoutingModule&#45;&gt;AppModule</title>
<path fill="none" stroke="#000000" d="M589,-122.0267C589,-142.7672 589,-174 589,-174 589,-174 1647.1779,-174 1647.1779,-174"/>
<polygon fill="#000000" stroke="#000000" points="1647.178,-177.5001 1657.1779,-174 1647.1779,-170.5001 1647.178,-177.5001"/>
</g>
<!-- HttpClientModule -->
<g id="node21" class="node">
<title>HttpClientModule</title>
<polygon fill="#8dd3c7" stroke="#000000" points="506.1611,-122 503.1611,-126 482.1611,-126 479.1611,-122 387.8389,-122 387.8389,-86 506.1611,-86 506.1611,-122"/>
<text text-anchor="middle" x="447" y="-99.8" font-family="Times,serif" font-size="14.00" fill="#000000">HttpClientModule</text>
</g>
<!-- HttpClientModule&#45;&gt;AppModule -->
<g id="edge20" class="edge">
<title>HttpClientModule&#45;&gt;AppModule</title>
<path fill="none" stroke="#000000" d="M447,-122.2921C447,-144.2057 447,-178 447,-178 447,-178 1646.9857,-178 1646.9857,-178"/>
<polygon fill="#000000" stroke="#000000" points="1646.9858,-181.5001 1656.9857,-178 1646.9857,-174.5001 1646.9858,-181.5001"/>
</g>
<!-- ProductService -->
<g id="node23" class="node">
<title>ProductService</title>
<ellipse fill="#fdb462" stroke="#000000" cx="294" cy="-104" rx="70.0616" ry="18"/>
<text text-anchor="middle" x="294" y="-99.8" font-family="Times,serif" font-size="14.00" fill="#000000">ProductService</text>
</g>
<!-- ProductService&#45;&gt;AppModule -->
<g id="edge22" class="edge">
<title>ProductService&#45;&gt;AppModule</title>
<path fill="none" stroke="#000000" d="M294,-122.2479C294,-145.0179 294,-181 294,-181 294,-181 1647.3323,-181 1647.3323,-181"/>
<polygon fill="#000000" stroke="#000000" points="1647.3324,-184.5001 1657.3323,-181 1647.3323,-177.5001 1647.3324,-184.5001"/>
</g>
<!-- UserAccountService -->
<g id="node24" class="node">
<title>UserAccountService</title>
<ellipse fill="#fdb462" stroke="#000000" cx="115" cy="-104" rx="90.8685" ry="18"/>
<text text-anchor="middle" x="115" y="-99.8" font-family="Times,serif" font-size="14.00" fill="#000000">UserAccountService</text>
</g>
<!-- UserAccountService&#45;&gt;AppModule -->
<g id="edge23" class="edge">
<title>UserAccountService&#45;&gt;AppModule</title>
<path fill="none" stroke="#000000" d="M115,-122.1532C115,-145.7566 115,-184 115,-184 115,-184 1647.0398,-184 1647.0398,-184"/>
<polygon fill="#000000" stroke="#000000" points="1647.0399,-187.5001 1657.0398,-184 1647.0398,-180.5001 1647.0399,-187.5001"/>
</g>
</g>
</svg>
